<?xml version="1.0" encoding="utf-8"?>
<!-- Generator: Adobe Illustrator 24.0.0, SVG Export Plug-In . SVG Version: 6.00 Build 0)  -->
<svg version="1.1" id="Logotype" xmlns="http://www.w3.org/2000/svg" xmlns:xlink="http://www.w3.org/1999/xlink" x="0px" y="0px"
	 viewBox="0 0 233.3 108.3" style="enable-background:new 0 0 233.3 108.3;" xml:space="preserve">
<style type="text/css">
	.st0{fill:#009530;}
</style>
<path class="st0" d="M92.4,66.3h5.8c-0.3,0.7-0.6,1.5-1,2.2h-5.3l-0.7,2.3h4.5c-0.8,1.2-1.8,2.3-2.9,3.4c-6.4,6.1-15.1,7.6-19.2,3.5
	c-2.1-2.1-2.6-5.4-1.8-8.9h4.9l0.8-2.3h-5c0.3-0.7,0.7-1.5,1.1-2.2h4.2l0.8-2.3h-3.5c0.8-1.1,1.6-2.1,2.6-3
	c6.4-6.1,15.1-7.5,19.2-3.4c2,2,2.6,5.1,1.9,8.5H93L92.4,66.3L92.4,66.3z M91.1,61.9h3.5l0.7-3.4h-5.7c-4,0-6.7,2.8-7.1,5.3L81,70
	c0,0.2-0.1,0.3-0.2,0.4c-0.2,0.3-0.5,0.4-0.9,0.4h-3.6l-1,3.7h5.6c4,0,7.1-2.5,7.6-5l1.9-7.1c0-0.1,0-0.2,0.1-0.3
	C90.6,62,90.7,61.9,91.1,61.9L91.1,61.9z M48.1,35.6c-4-1.8-6.5-2.5-8.9-2.5c-2.5,0-4.1,0.9-4.1,2.3c0,4.2,14.3,3,14.3,12.7
	c0,5.3-4.5,8.4-10.7,8.4c-4.9,0-7.3-1.3-10.1-2.7v-6c4,2.6,6.5,3.6,9.6,3.6c2.7,0,4.1-0.9,4.1-2.6C42.2,44.3,28,45.9,28,36
	c0-4.8,4.2-8,10.7-8c3.1,0,6,0.7,9.5,2.2v5.4H48.1z M68.1,55.2c-2.4,0.9-4.4,1.3-6.4,1.3c-6.6,0-10.9-3.9-10.9-9.7
	c0-5.7,4.5-9.8,10.7-9.8c1.9,0,4.4,0.5,6.3,1.2v4.4c-1.6-0.8-3.4-1.3-4.8-1.3c-3.6,0-5.9,2.1-5.9,5.4c0,3.3,2.3,5.5,5.6,5.5
	c1.4,0,2.7-0.3,5.3-1.3v4.3H68.1z M119.8,44.6h8.2c-0.2-2.6-1.8-4.1-4.1-4.1C121.6,40.5,120.1,42,119.8,44.6L119.8,44.6z M123.5,37
	c5.5,0,10,3.9,9.7,10.8h-13.6c0.2,3.3,2.5,5.2,6.2,5.2c2.4,0,4.2-0.7,7-2.7V54c-3.4,2.5-6.9,2.5-8.4,2.5c-6.6,0-11-3.8-11-9.6
	C113.5,41.1,117.7,37,123.5,37L123.5,37z M135.5,56.1V37.3h5.9v18.8H135.5L135.5,56.1z M158,51v-9c-0.9-0.6-2.3-1.1-3.3-1.1
	c-3,0-4.8,2.2-4.8,5.9c0,3.4,1.8,5.7,4.6,5.7C155.7,52.5,156.7,52.1,158,51L158,51z M158,28.3h5.9v27.8H158v-1.5
	c-1.7,1.3-3.2,1.9-5.3,1.9c-5.1,0-8.8-4.1-8.8-9.8c0-5.8,3.7-9.7,9.1-9.7c1.7,0,3.3,0.4,4.9,1.2v-9.9H158z M172.7,44.6h8.2
	c-0.2-2.6-1.8-4.1-4.1-4.1C174.4,40.5,172.9,42,172.7,44.6L172.7,44.6z M176.4,37c5.5,0,10,3.9,9.7,10.8h-13.6
	c0.2,3.3,2.5,5.2,6.2,5.2c2.4,0,4.2-0.7,7-2.7V54c-3.4,2.5-7,2.5-8.4,2.5c-6.6,0-10.9-3.8-10.9-9.6S170.5,37,176.4,37L176.4,37z
	 M195,42.7c1.8-3.9,3.8-5.7,6.1-5.7c1.2,0,2.2,0.4,3.9,1.7l-1.6,5.2c-1.6-1-2.6-1.4-3.5-1.4c-2.2,0-3.6,2-4.9,5.5v8.1h-6V37.3h5.9
	v5.4H195z M141.7,29.4c0.6,1.5-0.4,3.5-2.2,4.5s-3.7,0.7-4.2-0.7c-0.6-1.5,0.4-3.5,2.2-4.5C139.3,27.6,141.2,27.9,141.7,29.4
	L141.7,29.4z M89.4,44.2v6c-1.9,0.2-3.9,0.9-5.9,1.9v-6.6c0-2.8-1.2-4.1-3.1-4.1c-1.4,0-2.6,0.9-4,2.9v11.9h-5.9V28.3h5.9v11.8
	c1.8-2.2,3.7-3.1,6-3.1C86,37,89.4,39.1,89.4,44.2L89.4,44.2z M104.3,37c2.9,0,6.9,1.7,6.9,7.2v11.9h-5.9V44.7c0-2.7-1.3-3.8-3-3.8
	c-1.5,0-2.6,0.8-4.1,3.1v8.8c-1.3-1.6-3.9-2.5-5.9-2.7V37.3h5.9V40C100.1,37.9,101.9,37,104.3,37L104.3,37z M114.5,61.5h-6.9v4.9
	h6.7v2.1h-6.7v5h7.1v2.1h-9.4V59.4h9.2L114.5,61.5L114.5,61.5z M120.1,75.6V59.4h2.1v16.2L120.1,75.6L120.1,75.6z M132.7,66.5
	c-1.6,0-2.6,1-2.9,2.6h5.4C135.1,67.5,134.2,66.5,132.7,66.5L132.7,66.5z M129.7,70.5c0.3,2.1,1.5,3.2,3.6,3.2
	c1.3,0,2.5-0.5,3.7-1.3v2.1c-1.3,0.9-2.5,1.3-4.3,1.3c-3.3,0-5.2-2.7-5.2-5.7c0-3.2,2-5.4,5-5.4c2.8,0,4.7,1.9,4.7,5.8H129.7
	L129.7,70.5z M151.1,67.7c-1.2-0.8-2-1.1-3-1.1c-1.9,0-3.3,1.5-3.3,3.6c0,2.2,1.4,3.5,3.6,3.5c0.9,0,1.8-0.2,2.8-0.7v2.1
	c-0.7,0.3-2.1,0.6-3.2,0.6c-3.2,0-5.4-2.2-5.4-5.3c0-3.5,2-5.8,5.3-5.8c1.2,0,2.1,0.3,3.1,0.7L151.1,67.7L151.1,67.7z M160.7,64.9
	h3.4v1.9h-3.4v5.5c0,1.3,0.9,1.6,1.5,1.6c0.8,0,1.5-0.3,2.4-0.8v2c-0.7,0.4-1.9,0.7-2.6,0.7c-2.3,0-3.5-1.4-3.5-3.3v-5.6h-1.9v-0.2
	l4-3.9v2.1H160.7z M172.1,64.9v2.5c1.1-1.9,2.1-2.7,3.1-2.7c0.9,0,1.7,0.4,2.5,1.2l-1.1,1.8c-0.6-0.6-1.5-1.1-2-1.1
	c-1.5,0-2.6,1.5-2.6,3.3v5.6h-2V64.9H172.1L172.1,64.9z M199.5,67.7c-1.2-0.8-2-1.1-3-1.1c-1.9,0-3.3,1.5-3.3,3.6
	c0,2.2,1.4,3.5,3.6,3.5c0.9,0,1.8-0.2,2.8-0.7v2.1c-0.7,0.3-2.1,0.6-3.2,0.6c-3.2,0-5.4-2.2-5.4-5.3c0-3.5,2-5.8,5.3-5.8
	c1.2,0,2.1,0.3,3.1,0.7L199.5,67.7L199.5,67.7z M183.4,75.6V64.9h2.1v10.7H183.4L183.4,75.6z M185.6,61.1c0.2,0.5-0.2,1.2-0.8,1.6
	c-0.6,0.4-1.3,0.3-1.5-0.3c-0.2-0.5,0.2-1.2,0.8-1.6C184.7,60.4,185.4,60.5,185.6,61.1L185.6,61.1z"/>
</svg>
